<?xml version="1.0" encoding="utf-8"?>
<!-- Generator: Adobe Illustrator 25.4.1, SVG Export Plug-In . SVG Version: 6.00 Build 0)  -->
<svg version="1.1" id="Layer_1" xmlns="http://www.w3.org/2000/svg" xmlns:xlink="http://www.w3.org/1999/xlink" x="0px" y="0px"
	 viewBox="0 0 1248 1080" style="enable-background:new 0 0 1248 1080;" xml:space="preserve">
<style type="text/css">
	.st0{fill:#FFFFFF;}
</style>
<g>
	<g>
		<path class="st0" d="M8,34.91v-5.96h31.4c11.6,0,23.21-0.21,34.81-0.64c11.6-0.43,23.2-0.64,34.81-0.64
			c10.24,0,21.04,0.85,32.42,2.55c11.37,1.7,22.63,4.76,33.78,9.16c11.15,4.4,21.72,10.29,31.74,17.67
			c10.01,7.39,18.88,16.76,26.62,28.11c7.73,11.36,13.87,24.85,18.43,40.46c4.55,15.62,6.82,33.93,6.82,54.94
			c0,20.73-2.28,38.9-6.82,54.51c-4.55,15.62-10.64,29.1-18.26,40.46c-7.62,11.36-16.32,20.73-26.11,28.11
			c-9.78,7.38-19.96,13.27-30.54,17.67c-10.58,4.4-21.05,7.45-31.4,9.16c-10.36,1.7-19.97,2.55-28.84,2.55
			c-12.97,0-25.88-0.15-38.74-0.43c-12.85-0.29-25.76-0.43-38.73-0.43H8v-5.96h31.4V34.91H8z M106.96,327.48
			c14.79,0,27.41-2.2,37.88-6.6c10.46-4.4,19.28-10.36,26.45-17.89c7.16-7.52,12.85-16.11,17.07-25.76
			c4.2-9.65,7.39-19.8,9.55-30.45c2.16-10.65,3.58-21.29,4.27-31.94c0.68-10.65,1.02-20.65,1.02-30.02c0-23-1.14-43.79-3.42-62.39
			c-2.27-18.59-6.77-34.5-13.48-47.7c-6.71-13.2-16.15-23.35-28.32-30.45c-12.17-7.09-28.16-10.65-47.95-10.65
			c-4.55,0-8.65,0.07-12.28,0.21c-3.64,0.15-6.6,0.5-8.87,1.06V326.2C95.47,327.06,101.5,327.48,106.96,327.48z"/>
		<path class="st0" d="M459.5,28.95v72.82h-4.43c-1.14-4.83-3.07-11-5.8-18.53c-2.73-7.52-6.54-14.83-11.43-21.93
			c-4.9-7.09-11.21-13.27-18.94-18.52c-7.74-5.25-17.18-7.88-28.33-7.88h-54.26V166.5h19.11c8.41,0,15.53-1.49,21.33-4.47
			c5.8-2.98,10.63-7.24,14.51-12.78c3.86-5.54,7.05-12.2,9.55-20.01c2.5-7.81,4.55-16.54,6.14-26.19h4.44V235.5h-4.44
			c-1.59-8.23-3.47-16.18-5.63-23.85c-2.17-7.67-5.07-14.41-8.7-20.23c-3.64-5.82-8.14-10.43-13.48-13.84
			c-5.35-3.41-12-5.11-19.96-5.11h-22.87V326.2h55.97c10.46,0,19.9-2.2,28.32-6.6c8.41-4.4,15.87-10.57,22.35-18.53
			c6.48-7.94,11.89-17.25,16.21-27.89c4.32-10.65,7.62-22.07,9.9-34.28h4.43v93.26H255.43v-5.96h31.4V34.91h-31.4v-5.96H459.5z"/>
		<path class="st0" d="M494.85,237.62c0.45,3.41,1.25,7.88,2.39,13.41c1.13,5.54,2.78,11.5,4.95,17.89
			c2.16,6.39,4.89,12.92,8.19,19.59c3.3,6.67,7.34,12.85,12.12,18.53c5.23,6.54,10.29,11.5,15.19,14.91
			c4.89,3.41,9.55,5.89,13.99,7.45c4.44,1.56,8.65,2.42,12.63,2.55c3.98,0.15,7.68,0.21,11.09,0.21c12.05,0,21.95-2.34,29.69-7.03
			c7.73-4.68,13.82-10.44,18.26-17.25c4.44-6.81,7.56-13.98,9.39-21.51c1.82-7.52,2.73-14.12,2.73-19.8
			c0-10.5-1.99-19.16-5.98-25.98c-3.98-6.82-9.27-12.49-15.87-17.04c-6.6-4.54-14.11-8.37-22.52-11.5
			c-8.42-3.12-17.06-6.32-25.93-9.58c-8.87-3.26-17.52-7.09-25.94-11.5c-8.42-4.4-15.93-10.07-22.52-17.04
			c-6.6-6.95-11.89-15.54-15.87-25.76c-3.99-10.22-5.97-22.99-5.97-38.33c0-11.35,2.05-22.28,6.14-32.79
			c4.1-10.5,9.78-19.8,17.06-27.89s15.98-14.62,26.1-19.59c10.12-4.96,21.1-7.45,32.93-7.45c7.51,0,14.1,0.85,19.79,2.55
			c5.68,1.7,10.69,3.48,15.02,5.32c4.32,1.85,8.13,3.62,11.43,5.32c3.3,1.7,6.31,2.56,9.04,2.56c3.18,0,5.29-0.64,6.31-1.92
			c1.02-1.28,2.1-3.62,3.24-7.03h5.46v80.91h-4.43c-2.73-9.94-5.63-19.73-8.7-29.38c-3.07-9.65-7-18.38-11.78-26.19
			c-4.78-7.81-10.81-14.12-18.09-18.95c-7.28-4.82-16.5-7.24-27.64-7.24c-9.1,0-17.13,1.56-24.06,4.68
			c-6.94,3.13-12.8,7.24-17.57,12.35c-4.78,5.11-8.42,10.79-10.92,17.03c-2.5,6.25-3.75,12.64-3.75,19.16
			c0,9.94,2.1,18.17,6.31,24.7c4.21,6.53,9.73,12.14,16.55,16.82c6.83,4.68,14.62,8.73,23.38,12.14
			c8.75,3.41,17.74,6.96,26.96,10.65c9.22,3.69,18.2,7.74,26.96,12.14c8.75,4.4,16.55,10.01,23.37,16.82
			c6.82,6.82,12.34,15.05,16.55,24.7c4.21,9.66,6.31,21.58,6.31,35.77c0,13.91-2.28,27.11-6.83,39.6
			c-4.55,12.5-10.98,23.42-19.28,32.79c-8.31,9.37-18.2,16.82-29.69,22.36c-11.49,5.54-24.29,8.3-38.39,8.3
			c-7.05,0-14.05-0.85-20.99-2.55c-6.94-1.7-13.42-3.47-19.45-5.32c-6.03-1.84-11.38-3.62-16.04-5.32
			c-4.67-1.7-8.14-2.55-10.41-2.55c-3.19,0-5.46,0.64-6.82,1.92c-1.37,1.28-2.62,3.9-3.75,7.88h-5.46v-94.54H494.85z"/>
		<path class="st0" d="M780.17,28.95v5.96h-31.4V326.2h31.4v5.96H667.89v-5.96h31.4V34.91h-31.4v-5.96H780.17z"/>
		<path class="st0" d="M977.72,115.83c-5.92-27.82-14.79-49.47-26.62-64.94c-11.83-15.47-27.64-23.06-47.43-22.78
			c-15.7,0-28.32,3.77-37.88,11.29c-9.55,7.52-16.89,17.32-22.01,29.38c-5.12,12.07-8.48,25.84-10.07,41.31
			c-1.59,15.48-2.39,31.16-2.39,47.06v37.05c0,25.84,1.37,47.56,4.1,65.16c2.73,17.61,6.99,31.8,12.79,42.59
			c5.8,10.79,13.31,18.53,22.52,23.21c9.22,4.68,20.19,7.03,32.93,7.03c10.46,0,18.77-2.34,24.91-7.03
			c6.14-4.68,10.86-11.07,14.16-19.16c3.3-8.09,5.4-17.67,6.31-28.75c0.91-11.07,1.37-23.14,1.37-36.2v-16.18h-35.15v-5.96h105.45
			v5.96h-22.18v97.52h-6.15c-0.46-3.41-1.76-5.89-3.92-7.45c-2.17-1.56-4.61-2.34-7.34-2.34c-5.46,0-10.64,1.35-15.52,4.05
			c-4.9,2.7-10.18,5.61-15.87,8.73c-5.69,3.13-12.23,6.04-19.62,8.73c-7.4,2.7-16.32,4.05-26.79,4.05
			c-16.61,0-32.65-4.05-48.11-12.14c-15.47-8.09-29.07-19.16-40.78-33.22c-11.72-14.05-21.1-30.59-28.15-49.61
			c-7.05-19.02-10.58-39.61-10.58-61.75c0-24.13,3.93-45.99,11.78-65.58c7.85-19.59,17.92-36.34,30.2-50.25
			c12.28-13.91,25.99-24.63,41.12-32.15c15.13-7.52,29.97-11.28,44.53-11.28c6.83,0,13.42,0.85,19.8,2.55
			c6.36,1.7,12.28,3.48,17.75,5.32c5.46,1.85,10.35,3.62,14.67,5.32c4.32,1.7,7.96,2.56,10.92,2.56c3.18,0,5.46-0.64,6.83-1.92
			c1.37-1.28,2.61-3.62,3.75-7.03h5.8v86.88H977.72z"/>
		<path class="st0" d="M1088.83,28.95l113.64,202.71h0.68V34.91h-31.4v-5.96H1240v5.96h-31.4v297.25h-9.22L1045.83,59.19h-0.69
			V326.2h31.4v5.96h-68.25v-5.96h31.4V34.91h-31.4v-5.96H1088.83z"/>
	</g>
	<g>
		<path class="st0" d="M120.27,681.76v5.96H8v-5.96h31.4V390.47H8v-5.96h31.4c11.6,0,23.2-0.21,34.81-0.64
			c11.6-0.43,23.2-0.64,34.81-0.64c10.24,0,21.27,1.06,33.1,3.19c11.83,2.13,22.74,6.11,32.76,11.93
			c10.01,5.82,18.37,13.91,25.08,24.27c6.71,10.37,10.07,23.78,10.07,40.24c0,11.07-2.17,21.51-6.48,31.3
			c-4.32,9.79-10.92,18.31-19.79,25.55c-8.87,7.24-20.02,12.99-33.45,17.25c-13.42,4.26-29.23,6.39-47.43,6.39H88.87v138.41H120.27z
			 M99.45,537.4c19.33,0,33.33-5.46,41.97-16.4c8.65-10.93,12.97-29.45,12.97-55.57c0-24.7-3.75-43.58-11.26-56.64
			c-7.51-13.05-21.16-19.59-40.95-19.59c-2.51,0-4.9,0.15-7.17,0.43c-2.28,0.29-4.32,0.57-6.14,0.85V537.4H99.45z"/>
		<path class="st0" d="M308.3,384.51v5.96h-31.4v191.21c0,13.35,0.51,26.34,1.53,38.97c1.03,12.64,3.42,23.92,7.17,33.86
			c3.75,9.94,9.32,17.96,16.72,24.06c7.39,6.11,17.35,9.16,29.86,9.16c12.29,0,22.58-1.77,30.89-5.32
			c8.3-3.55,15.19-8.23,20.64-14.05c5.46-5.82,9.67-12.35,12.63-19.59c2.96-7.24,5.12-14.48,6.48-21.72
			c1.37-7.24,2.16-14.05,2.39-20.44c0.23-6.39,0.34-11.71,0.34-15.97V390.47H374.5v-5.96h68.25v5.96h-31.73V590.2
			c0,4.54-0.12,10.29-0.34,17.25c-0.23,6.96-1.14,14.27-2.73,21.93c-1.59,7.66-3.98,15.33-7.17,23
			c-3.19,7.66-7.85,14.55-13.99,20.65c-6.14,6.11-13.88,11.07-23.21,14.91c-9.33,3.83-20.81,5.75-34.46,5.75
			c-22.07,0-39.81-3.05-53.24-9.16c-13.42-6.1-23.72-14.05-30.88-23.85c-7.16-9.79-11.89-20.93-14.16-33.43
			c-2.28-12.49-3.41-25.13-3.41-37.9V390.47h-31.74v-5.96H308.3z"/>
		<path class="st0" d="M444.04,390.47v-5.96h51.53c9.56,0,19-0.21,28.33-0.64c9.33-0.43,18.77-0.64,28.32-0.64
			c8.87,0,18.2,1.14,27.98,3.41c9.78,2.28,18.71,6.11,26.79,11.5c8.07,5.39,14.72,12.64,19.96,21.72
			c5.23,9.09,7.85,20.44,7.85,34.07c0,12.21-2.56,22.5-7.67,30.87c-5.12,8.38-11.32,15.26-18.6,20.65
			c-7.28,5.39-14.84,9.51-22.69,12.35c-7.85,2.84-14.5,4.68-19.96,5.54v1.7c8.87,0.85,18.09,2.7,27.64,5.54
			c9.56,2.84,18.31,7.31,26.28,13.42c7.96,6.11,14.56,14.13,19.8,24.06c5.23,9.94,7.85,22.43,7.85,37.48
			c0,16.47-3.36,30.1-10.07,40.88c-6.71,10.79-14.9,19.31-24.57,25.55c-9.67,6.25-19.96,10.58-30.88,12.99
			c-10.92,2.42-20.71,3.62-29.35,3.62c-9.55,0-19.06-0.15-28.49-0.43c-9.44-0.29-18.94-0.43-28.5-0.43h-51.53v-5.96h31.4V390.47
			H444.04z M538.91,522.07c10.24,0,18.31-1.7,24.23-5.11c5.91-3.41,10.35-8.02,13.31-13.84c2.95-5.82,4.83-12.42,5.63-19.8
			c0.8-7.38,1.2-14.91,1.2-22.57c0-12.49-0.68-23.21-2.05-32.15c-1.37-8.94-3.64-16.32-6.82-22.15
			c-3.19-5.82-7.57-10.15-13.14-12.99c-5.58-2.83-12.69-4.26-21.33-4.26c-2.5,0-5.01,0.15-7.51,0.43c-2.5,0.29-5.01,0.57-7.51,0.85
			v131.59H538.91z M544.71,683.04c7.28,0,13.82-1.06,19.62-3.19c5.8-2.13,10.75-6.18,14.84-12.14c4.1-5.96,7.22-14.27,9.38-24.91
			c2.16-10.65,3.24-24.63,3.24-41.95c0-4.83-0.34-11.29-1.02-19.38c-0.68-8.09-2.56-16.11-5.63-24.06
			c-3.07-7.94-7.74-14.83-13.99-20.65c-6.26-5.82-15.08-8.73-26.45-8.73h-19.79v153.74C531.06,682.62,537.66,683.04,544.71,683.04z"
			/>
		<path class="st0" d="M760.18,384.51v5.96h-31.4v291.29h56.31c7.51,0,15.07-1.56,22.69-4.68c7.62-3.12,14.79-8.31,21.5-15.54
			c6.71-7.24,12.74-16.61,18.09-28.11c5.34-11.5,9.49-25.48,12.46-41.95h4.43v96.24H647.9v-5.96h31.4V390.47h-31.4v-5.96H760.18z"/>
		<path class="st0" d="M981.34,384.51v5.96h-31.4v291.29h31.4v5.96H869.06v-5.96h31.4V390.47h-31.4v-5.96H981.34z"/>
		<path class="st0" d="M1179.84,471.39c-2.51-9.37-5.52-19.23-9.04-29.6c-3.53-10.36-8.08-19.87-13.65-28.53
			c-5.58-8.66-12.52-15.76-20.81-21.29c-8.31-5.54-18.6-8.3-30.89-8.3c-16.61,0-29.69,3.83-39.25,11.5
			c-9.55,7.66-16.78,18.31-21.67,31.94c-4.9,13.63-8.02,29.88-9.39,48.76c-1.37,18.88-2.05,39.54-2.05,61.96
			c0,29.53,1.37,53.94,4.1,73.25c2.73,19.31,6.99,34.64,12.79,45.99c5.8,11.36,13.31,19.31,22.52,23.85
			c9.22,4.55,20.19,6.81,32.93,6.81c10.24,0,19.5-2.55,27.81-7.66c8.3-5.11,15.64-11.85,22.01-20.23
			c6.37-8.37,11.71-17.95,16.04-28.75c4.32-10.79,7.51-22,9.55-33.64h5.46v90.28h-5.46c-1.14-3.41-2.5-5.75-4.1-7.03
			c-1.59-1.28-3.98-1.92-7.17-1.92c-2.73,0-6.26,0.78-10.58,2.34c-4.32,1.56-9.27,3.27-14.84,5.11c-5.58,1.84-11.66,3.55-18.26,5.11
			c-6.6,1.56-13.54,2.34-20.82,2.34c-16.61,0-32.65-4.05-48.11-12.14c-15.47-8.09-29.07-19.16-40.78-33.22
			c-11.72-14.05-21.1-30.59-28.15-49.61c-7.05-19.02-10.58-39.61-10.58-61.75c0-24.13,3.92-45.99,11.78-65.58
			c7.85-19.59,17.91-36.34,30.2-50.25c12.28-13.91,25.99-24.63,41.12-32.15c15.13-7.52,29.97-11.28,44.53-11.28
			c7.28,0,14.05,0.85,20.31,2.55c6.26,1.7,12.06,3.48,17.4,5.32c5.35,1.85,10.18,3.62,14.51,5.32c4.32,1.7,7.96,2.56,10.92,2.56
			c3.18,0,5.57-0.49,7.16-1.49c1.59-0.99,2.73-3.47,3.42-7.45h5.46v86.88H1179.84z"/>
	</g>
	<g>
		<path class="st0" d="M215.55,829.47c-6.08-28.58-15.19-50.82-27.35-66.72c-12.15-15.89-28.4-23.7-48.73-23.41
			c-16.13,0-29.1,3.87-38.92,11.6c-9.82,7.73-17.35,17.79-22.61,30.19c-5.26,12.4-8.71,26.54-10.34,42.44
			c-1.64,15.9-2.45,32.02-2.45,48.35v38.06c0,26.55,1.4,48.86,4.21,66.94c2.8,18.09,7.19,32.67,13.14,43.75
			c5.96,11.09,13.68,19.03,23.14,23.85c9.47,4.81,20.74,7.22,33.83,7.22c10.75,0,19.28-2.41,25.59-7.22
			c6.31-4.81,11.16-11.38,14.55-19.69c3.39-8.31,5.55-18.16,6.49-29.53c0.93-11.37,1.4-23.77,1.4-37.19v-16.63h-36.11v-6.12h108.34
			v6.12h-22.79v100.2h-6.32c-0.47-3.5-1.81-6.05-4.03-7.66c-2.23-1.6-4.74-2.41-7.54-2.41c-5.61,0-10.93,1.39-15.95,4.16
			c-5.03,2.78-10.46,5.76-16.31,8.97c-5.84,3.21-12.56,6.2-20.16,8.97c-7.6,2.77-16.77,4.16-27.52,4.16
			c-17.06,0-33.54-4.16-49.43-12.47c-15.9-8.31-29.86-19.69-41.9-34.13c-12.04-14.44-21.68-31.43-28.92-50.97
			C11.62,940.75,8,919.6,8,896.85c0-24.79,4.03-47.25,12.1-67.38c8.07-20.12,18.41-37.33,31.03-51.63
			c12.62-14.29,26.7-25.3,42.25-33.03c15.54-7.73,30.79-11.59,45.75-11.59c7.01,0,13.79,0.88,20.34,2.62
			c6.54,1.75,12.62,3.58,18.23,5.47c5.61,1.9,10.63,3.72,15.07,5.47c4.44,1.75,8.18,2.63,11.22,2.63c3.27,0,5.61-0.66,7.01-1.97
			c1.4-1.31,2.68-3.72,3.86-7.22h5.96v89.26H215.55z"/>
		<path class="st0" d="M247.14,746.34v-6.12h52.94c9.82,0,19.52-0.22,29.1-0.66c9.58-0.44,19.28-0.66,29.1-0.66
			c9.12,0,18.76,1.17,28.93,3.5c10.17,2.34,19.46,6.34,27.87,12.03c8.42,5.69,15.37,13.34,20.86,22.97
			c5.49,9.63,8.24,21.73,8.24,36.32c0,11.67-2.11,21.66-6.31,29.97c-4.21,8.31-9.64,15.09-16.31,20.34
			c-6.66,5.25-14.09,9.26-22.26,12.03c-8.18,2.77-16.24,4.59-24.19,5.47v2.19c11.45,2.62,21.68,5.25,30.68,7.87
			c9,2.63,16.77,6.56,23.32,11.81c6.54,5.25,11.75,12.54,15.6,21.88c3.86,9.34,6.25,21.87,7.19,37.63
			c1.17,18.38,2.1,33.11,2.8,44.19c0.7,11.09,1.69,19.69,2.98,25.81c1.28,6.13,3.03,10.21,5.26,12.25c2.22,2.04,5.44,3.06,9.64,3.06
			c4.67,0,8.53-1.68,11.57-5.03c3.03-3.35,5.72-6.49,8.06-9.41l3.51,3.94c-2.34,2.92-4.62,5.62-6.84,8.09
			c-2.23,2.48-4.79,4.59-7.71,6.34c-2.92,1.75-6.49,3.13-10.69,4.16c-4.21,1.02-9.46,1.53-15.78,1.53
			c-12.85,0-22.91-2.56-30.15-7.66c-7.25-5.1-12.62-11.44-16.13-19.03c-3.5-7.58-5.67-15.82-6.49-24.72
			c-0.82-8.89-1.35-17.28-1.57-25.16c-0.47-11.96-1.11-23.55-1.93-34.79c-0.82-11.23-2.75-21.22-5.78-29.97
			c-3.04-8.75-7.6-15.75-13.68-21c-6.08-5.25-14.61-7.88-25.59-7.88h-23.14v157.95h32.26v6.12H247.14v-6.12h32.26V746.34H247.14z
			 M344.61,881.54c10.52,0,18.81-1.75,24.89-5.25c6.07-3.5,10.63-8.24,13.67-14.22c3.03-5.98,4.96-12.76,5.78-20.34
			c0.82-7.58,1.23-15.31,1.23-23.19c0-12.83-0.7-23.85-2.11-33.03c-1.4-9.19-3.74-16.77-7.01-22.75
			c-3.28-5.98-7.78-10.43-13.5-13.34c-5.73-2.91-13.03-4.38-21.91-4.38c-2.57,0-5.15,0.15-7.71,0.44c-2.57,0.29-5.15,0.59-7.71,0.88
			v135.2H344.61z"/>
		<path class="st0" d="M481.41,829.47c8.07-20.12,18.41-37.33,31.03-51.63c12.62-14.29,26.76-25.3,42.42-33.03
			c15.66-7.73,30.97-11.59,45.93-11.59c16.13,0,32.08,3.79,47.85,11.37c15.78,7.59,29.8,18.38,42.08,32.38
			c12.27,14,22.2,31,29.8,50.97c7.59,19.98,11.39,42.52,11.39,67.6c0,21.87-3.57,42.66-10.69,62.35
			c-7.13,19.69-16.72,36.97-28.75,51.85c-12.04,14.87-25.94,26.62-41.72,35.22c-15.78,8.6-32.43,12.91-49.96,12.91
			c-17.3,0-33.9-4.16-49.79-12.47c-15.9-8.31-29.86-19.69-41.89-34.13c-12.04-14.44-21.68-31.43-28.93-50.97
			c-7.25-19.54-10.87-40.69-10.87-63.44C469.31,872.06,473.34,849.6,481.41,829.47z M530.67,972.32
			c2.81,19.98,7.19,35.88,13.15,47.69c5.96,11.81,13.67,20.06,23.14,24.72c9.46,4.67,20.74,7,33.83,7
			c17.29,0,30.85-4.01,40.67-12.03c9.82-8.02,17.18-19.1,22.09-33.25c4.91-14.14,8-30.91,9.29-50.31
			c1.28-19.39,1.93-40.47,1.93-63.22c0-20.41-0.52-39.88-1.58-58.41c-1.05-18.52-4.03-34.85-8.94-49
			c-4.91-14.14-12.33-25.38-22.26-33.69c-9.94-8.31-23.67-12.47-41.2-12.47c-16.36,0-29.45,3.87-39.27,11.6
			c-9.82,7.73-17.3,18.59-22.44,32.6c-5.14,14-8.53,30.63-10.17,49.88c-1.64,19.25-2.45,40.4-2.45,63.44
			C526.46,927.19,527.86,952.35,530.67,972.32z"/>
		<path class="st0" d="M839.44,740.22v6.12h-32.26v196.45c0,13.71,0.52,27.06,1.57,40.04c1.06,12.98,3.51,24.58,7.37,34.78
			c3.86,10.21,9.58,18.45,17.18,24.72c7.59,6.27,17.82,9.41,30.68,9.41c12.63,0,23.2-1.82,31.73-5.47
			c8.53-3.65,15.6-8.46,21.21-14.44c5.61-5.98,9.93-12.69,12.97-20.12c3.04-7.44,5.26-14.88,6.66-22.31s2.22-14.44,2.45-21
			s0.35-12.03,0.35-16.41V746.34h-31.9v-6.12h70.12v6.12h-32.6v205.2c0,4.67-0.12,10.58-0.35,17.72
			c-0.24,7.15-1.17,14.66-2.81,22.53c-1.64,7.87-4.09,15.75-7.36,23.63c-3.28,7.87-8.07,14.95-14.38,21.22
			c-6.31,6.28-14.26,11.38-23.84,15.31c-9.59,3.94-21.38,5.91-35.41,5.91c-22.67,0-40.91-3.14-54.7-9.41
			c-13.79-6.27-24.37-14.44-31.73-24.5c-7.36-10.06-12.22-21.51-14.55-34.35c-2.34-12.83-3.5-25.81-3.5-38.94V746.34h-32.61v-6.12
			H839.44z"/>
		<path class="st0" d="M1094.12,1045.61v6.12H978.77v-6.12h32.26V746.34h-32.26v-6.12h32.26c11.92,0,23.84-0.22,35.76-0.66
			c11.92-0.44,23.84-0.66,35.76-0.66c10.52,0,21.86,1.09,34.01,3.28c12.15,2.19,23.37,6.28,33.66,12.25
			c10.28,5.98,18.87,14.29,25.77,24.94c6.89,10.65,10.34,24.43,10.34,41.35c0,11.37-2.23,22.1-6.66,32.16
			c-4.44,10.06-11.22,18.81-20.33,26.25c-9.12,7.44-20.57,13.34-34.36,17.72c-13.79,4.37-30.03,6.56-48.73,6.56h-14.38v142.2
			H1094.12z M1072.73,897.29c19.86,0,34.24-5.61,43.12-16.85c8.88-11.22,13.32-30.26,13.32-57.1c0-25.38-3.86-44.77-11.57-58.19
			c-7.71-13.41-21.74-20.13-42.07-20.13c-2.58,0-5.03,0.15-7.37,0.44c-2.34,0.29-4.44,0.59-6.31,0.88v150.95H1072.73z"/>
	</g>
</g>
</svg>
